<svg width="35" height="40" viewBox="0 0 35 40" fill="none" xmlns="http://www.w3.org/2000/svg">
<path d="M35.0003 16.3984C31.5628 16.4062 28.2034 15.3359 25.4066 13.3359V27.2969C25.4066 29.8828 24.6175 32.4062 23.1409 34.5312C21.6644 36.6562 19.5784 38.2812 17.1566 39.1875C14.7347 40.0938 12.0941 40.2422 9.58624 39.6016C7.07843 38.9609 4.82843 37.5781 3.12531 35.6328C1.42218 33.6875 0.367493 31.2578 0.0784304 28.6875C-0.210632 26.1172 0.304993 23.5234 1.53156 21.25C2.75812 18.9766 4.65655 17.1328 6.96905 15.9609C9.28155 14.7891 11.8831 14.3594 14.4456 14.7109V21.7344C13.2737 21.3672 12.0159 21.375 10.8519 21.7656C9.6878 22.1562 8.67218 22.9062 7.96124 23.8984C7.2503 24.8906 6.86749 26.0937 6.8753 27.3281C6.88312 28.5625 7.28155 29.75 8.00812 30.7422C8.73468 31.7344 9.75812 32.4688 10.93 32.8438C12.1019 33.2188 13.3597 33.2188 14.5237 32.8359C15.6878 32.4531 16.7112 31.7109 17.43 30.7188C18.1487 29.7266 18.5394 28.5234 18.5394 27.2969V0H25.4144C25.4066 0.578125 25.4612 1.16406 25.5628 1.73437C25.805 3.00781 26.2972 4.22656 27.0237 5.30469C27.7503 6.38281 28.6878 7.30469 29.7737 8.00781C31.3284 9.03125 33.1487 9.57812 35.0081 9.57812V16.4062L35.0003 16.3984Z" fill="#6C6D71"/>
</svg>
