<svg width="47" height="33" viewBox="0 0 47 33" fill="none" xmlns="http://www.w3.org/2000/svg">
<path d="M23.3333 14C27.3233 14 30.3333 10.99 30.3333 7C30.3333 3.01 27.3233 0 23.3333 0C19.3433 0 16.3333 3.01 16.3333 7C16.3333 10.99 19.3433 14 23.3333 14ZM23.3333 4.66667C24.7333 4.66667 25.6667 5.6 25.6667 7C25.6667 8.4 24.7333 9.33333 23.3333 9.33333C21.9333 9.33333 21 8.4 21 7C21 5.6 21.9333 4.66667 23.3333 4.66667ZM25.6667 16.3333H21C14.56 16.3333 9.33333 21.56 9.33333 28V29.1667C9.33333 31.1033 10.8967 32.6667 12.8333 32.6667H33.8333C35.77 32.6667 37.3333 31.1033 37.3333 29.1667V28C37.3333 21.56 32.1067 16.3333 25.6667 16.3333ZM14 28C14 24.15 17.15 21 21 21H25.6667C29.5167 21 32.6667 24.15 32.6667 28H14ZM10.5 14C11.5967 14 12.6 13.72 13.4633 13.23C12.4847 11.6719 11.8862 9.90555 11.7159 8.07351C11.5457 6.24147 11.8086 4.39507 12.4833 2.68333C11.8767 2.47333 11.2 2.33333 10.5 2.33333C7.14 2.33333 4.66667 4.80667 4.66667 8.16667C4.66667 11.5267 7.14 14 10.5 14ZM9.59 16.3333H8.16667C3.66333 16.3333 0 19.9967 0 24.5V26.8333C0 27.4867 0.513333 28 1.16667 28H4.66667C4.66667 23.4267 6.55667 19.2967 9.59 16.3333ZM36.1667 14C39.5267 14 42 11.5267 42 8.16667C42 4.80667 39.5267 2.33333 36.1667 2.33333C35.4433 2.33333 34.79 2.47333 34.1833 2.68333C34.8581 4.39507 35.121 6.24147 34.9508 8.07351C34.7805 9.90555 34.1819 11.6719 33.2033 13.23C34.0667 13.72 35.0467 14 36.1667 14ZM38.5 16.3333H37.0767C38.6358 17.8499 39.8748 19.6639 40.7205 21.6678C41.5661 23.6717 42.0012 25.8249 42 28H45.5C46.1533 28 46.6667 27.4867 46.6667 26.8333V24.5C46.6667 19.9967 43.0033 16.3333 38.5 16.3333Z" fill="#135BEC"/>
</svg>
