<svg width="49" height="38" viewBox="0 0 49 38" fill="none" xmlns="http://www.w3.org/2000/svg">
<path d="M47.6933 10.7438L26.6933 0.243763C26.3707 0.0834342 26.0153 0 25.655 0C25.2947 0 24.9393 0.0834342 24.6167 0.243763L10.6167 7.24376L3.61667 10.7438L1.28333 11.9104C0.898533 12.1043 0.574939 12.401 0.348421 12.7675C0.121902 13.1341 0.00130598 13.5562 0 13.9871V27.9871H4.66667V15.4338L9.33333 17.7671V26.7038C9.33333 31.5104 16.6133 37.3438 25.6667 37.3438C34.72 37.3438 42 31.5338 42 26.7038V17.7671L47.7167 14.9204C48.51 14.5238 49 13.7071 49 12.8438C49 11.9804 48.51 11.1638 47.7167 10.7671L47.6933 10.7438ZM12.6933 11.4204L25.6433 4.93376L41.4167 12.8204L25.6433 20.7071L9.87 12.8204L12.6933 11.3971V11.4204ZM37.31 26.7038C37.31 28.4771 32.3867 32.6771 25.6433 32.6771C18.9 32.6771 13.9767 28.5004 13.9767 26.7038V20.1004L24.5933 25.4204C24.92 25.5838 25.27 25.6771 25.6433 25.6771C26.0167 25.6771 26.3667 25.5838 26.6933 25.4204L37.31 20.1004V26.7038Z" fill="#135BEC"/>
</svg>
