<svg width="45" height="42" viewBox="0 0 45 42" fill="none" xmlns="http://www.w3.org/2000/svg">
<path d="M22.4188 11.6875C15.385 11.6875 9.66875 17.4037 9.66875 24.4375C9.66875 28.4963 11.5387 30.6637 13.3237 32.7887C14.0037 33.575 14.705 34.4037 15.3425 35.36C15.725 35.9338 16.0012 36.5713 16.1925 37.1875H13.9188V41.4375H30.9188V37.1875H28.645C28.8575 36.5713 29.1125 35.9338 29.495 35.36C30.1325 34.425 30.8125 33.5963 31.4925 32.81C33.2988 30.685 35.1687 28.475 35.1687 24.4375C35.1687 17.4037 29.4525 11.6875 22.4188 11.6875ZM28.2412 30.0475C27.5187 30.8975 26.7113 31.8325 25.9463 32.98C25.0325 34.34 24.5225 35.8488 24.225 37.1662H20.57C20.2725 35.8488 19.7625 34.34 18.8487 32.98C18.0625 31.8113 17.255 30.855 16.5325 30.005C14.9387 28.135 13.8975 26.9025 13.8975 24.4163C13.8975 19.72 17.7013 15.9162 22.3975 15.9162C27.0938 15.9162 30.8975 19.72 30.8975 24.4163C30.8975 26.8813 29.835 28.135 28.22 30.0262L28.2412 30.0475ZM20.2938 3.71875V7.4375H24.5438V0H20.2938V3.71875ZM2.3375 9.92375L1.16875 11.6875L0 13.4513L3.1875 15.5763L6.375 17.7013L7.54375 15.9375L8.7125 14.1737L5.525 12.0487L2.3375 9.92375ZM11.4325 2.01875L9.66875 3.1875L7.905 4.35625L10.03 7.54375L12.155 10.7313L13.9188 9.5625L15.6825 8.39375L13.5575 5.20625L11.4325 2.01875ZM42.5 9.92375L39.3125 12.0487L36.125 14.1737L37.2937 15.9375L38.4625 17.7013L41.65 15.5763L44.8375 13.4513L43.6687 11.6875L42.5 9.92375ZM31.28 5.20625L29.155 8.39375L30.9188 9.5625L32.6825 10.7313L34.8075 7.54375L36.9325 4.35625L35.1687 3.1875L33.405 2.01875L31.28 5.20625Z" fill="#7860FF"/>
</svg>
