<svg width="20" height="16" viewBox="0 0 20 16" fill="none" xmlns="http://www.w3.org/2000/svg">
<path d="M12.5258 0.0391832C11.9356 -0.113909 11.3211 0.1954 11.1509 0.726538L6.70688 14.7236C6.53676 15.2547 6.88048 15.8077 7.47071 15.9608C8.06093 16.1139 8.67546 15.8046 8.84559 15.2735L13.2896 1.27642C13.4598 0.745284 13.116 0.192276 12.5258 0.0391832ZM14.7687 4.29141C14.3347 4.68195 14.3347 5.31619 14.7687 5.70674L17.3171 8L14.7687 10.2933C14.3347 10.6838 14.3347 11.3181 14.7687 11.7086C15.2027 12.0991 15.9075 12.0991 16.3415 11.7086L19.6745 8.70923C20.1085 8.31868 20.1085 7.68444 19.6745 7.2939L16.3415 4.29453C15.9075 3.90399 15.2027 3.90399 14.7687 4.29453V4.29141ZM5.23132 4.29141C4.79733 3.90087 4.09253 3.90087 3.65854 4.29141L0.325493 7.29078C-0.108498 7.68132 -0.108498 8.31556 0.325493 8.7061L3.65854 11.7055C4.09253 12.096 4.79733 12.096 5.23132 11.7055C5.66531 11.3149 5.66531 10.6807 5.23132 10.2901L2.68293 8L5.22785 5.70674C5.66184 5.31619 5.66184 4.68195 5.22785 4.29141H5.23132Z" fill="#6C6D71"/>
</svg>
