<svg width="16" height="16" viewBox="0 0 16 16" fill="none" xmlns="http://www.w3.org/2000/svg">
<path d="M4.44758 9.45231H1.05087C0.233687 9.45231 -0.268436 8.5629 0.151641 7.86057L1.88774 4.9659C2.17326 4.49002 2.68523 4.20121 3.23986 4.20121H6.35761C8.8551 -0.0292107 12.58 -0.242537 15.0709 0.121758C15.491 0.184115 15.8192 0.512309 15.8782 0.929115C16.2425 3.42011 16.0292 7.14511 11.7989 9.64266V12.7605C11.7989 13.3152 11.5101 13.8271 11.0342 14.1127L8.13965 15.8488C7.44062 16.2689 6.54796 15.7635 6.54796 14.9496V11.5528C6.54796 10.3942 5.60607 9.45231 4.44758 9.45231ZM13.3742 4.20121C13.3742 3.33149 12.6686 2.62588 11.7989 2.62588C10.9292 2.62588 10.2236 3.33149 10.2236 4.20121C10.2236 5.07092 10.9292 5.77654 11.7989 5.77654C12.6686 5.77654 13.3742 5.07092 13.3742 4.20121Z" fill="#6C6D71"/>
</svg>
