<svg width="20" height="17" viewBox="0 0 20 17" fill="none" xmlns="http://www.w3.org/2000/svg">
<path d="M3.125 0C2.08984 0 1.25 0.815848 1.25 1.82143C1.25 2.82701 2.08984 3.64286 3.125 3.64286H9.0625V5.16071L7.1875 6.98214H4.375C2.82031 6.98214 1.5625 8.20402 1.5625 9.71429V12.1429H1.25C0.558594 12.1429 0 12.6855 0 13.3571V15.7857C0 16.4574 0.558594 17 1.25 17H3.75C4.44141 17 5 16.4574 5 15.7857V13.3571C5 12.6855 4.44141 12.1429 3.75 12.1429H3.4375V9.71429C3.4375 9.2096 3.85547 8.80357 4.375 8.80357H7.1875L9.0625 10.625V12.1429H8.75C8.05859 12.1429 7.5 12.6855 7.5 13.3571V15.7857C7.5 16.4574 8.05859 17 8.75 17H11.25C11.9414 17 12.5 16.4574 12.5 15.7857V13.3571C12.5 12.6855 11.9414 12.1429 11.25 12.1429H10.9375V10.625L12.8125 8.80357H15.625C16.1445 8.80357 16.5625 9.2096 16.5625 9.71429V12.1429H16.25C15.5586 12.1429 15 12.6855 15 13.3571V15.7857C15 16.4574 15.5586 17 16.25 17H18.75C19.4414 17 20 16.4574 20 15.7857V13.3571C20 12.6855 19.4414 12.1429 18.75 12.1429H18.4375V9.71429C18.4375 8.20402 17.1797 6.98214 15.625 6.98214H12.8125L10.9375 5.16071V3.64286H16.875C17.9102 3.64286 18.75 2.82701 18.75 1.82143C18.75 0.815848 17.9102 0 16.875 0H3.125Z" fill="#6C6D71"/>
</svg>
